<svg xmlns="http://www.w3.org/2000/svg" xmlns:xlink="http://www.w3.org/1999/xlink" viewBox="0 0 257.3163 162.5994"><defs><style>.cls-1 { isolation: isolate; } .cls-2 { fill: #344563; } .cls-3 { fill: #1db9d4; } .cls-4 { fill: #0057d8; } .cls-5, .cls-7, .cls-9 { mix-blend-mode: multiply; } .cls-5 { fill: url(#N75); } .cls-6 { fill: #0065ff; } .cls-7 { fill: url(#N75-2); } .cls-8 { fill: url(#linear-gradient); } .cls-9 { fill: url(#N75-3); } .cls-10 { fill: url(#T200-T75); }</style><linearGradient id="N75" x1="-2189.556" y1="2808.228" x2="-2091.155" y2="2808.228" gradientTransform="rotate(80.323 -2799.586 -45.32)" gradientUnits="userSpaceOnUse"><stop offset="0" stop-color="#e5e8ec"/><stop offset="1" stop-color="#e5e8ec" stop-opacity=".1"/></linearGradient><linearGradient id="N75-2" data-name="N75" x1="-2168.595" y1="2935.056" x2="-2070.194" y2="2935.056" xlink:href="#N75"/><linearGradient id="linear-gradient" x1="190.355" y1="159.967" x2="259.949" y2="90.373" gradientUnits="userSpaceOnUse"><stop offset="0" stop-color="#344563"/><stop offset="1" stop-color="#5e6c84"/></linearGradient><linearGradient id="N75-3" data-name="N75" x1="-2257.398" y1="2884.226" x2="-2158.997" y2="2884.226" xlink:href="#N75"/><linearGradient id="T200-T75" x1="126.026" y1="85.108" x2="195.62" y2="15.514" gradientUnits="userSpaceOnUse"><stop offset="0" stop-color="#3dc7dc"/><stop offset="1" stop-color="#9ce3ee"/></linearGradient></defs><title>Add On Blocks 2</title><g class="cls-1"><g id="Layer_2" data-name="Layer 2"><g id="Objects"><path id="_Rectangle_" data-name="&lt;Rectangle&gt;" class="cls-2" d="M128.658 87.74h64.33v74.86h-64.33z"/><path id="_Rectangle_2" data-name="&lt;Rectangle&gt;" class="cls-3" d="M64.33 12.882h64.328v74.86h-64.33z"/><path id="_Rectangle_3" data-name="&lt;Rectangle&gt;" class="cls-4" d="M0 87.74h64.33v74.86H0z"/><path class="cls-5" d="M64.33 87.74H58.65a62.788 62.788 0 0 0-24.568 20.762c-8.26 12.196-4.344 18.242-11.664 31.64C16.51 150.96 8.05 157.82 0 162.556v.043h64.33z"/><path id="_Rectangle_4" data-name="&lt;Rectangle&gt;" class="cls-6" d="M64.33 87.74h64.328v74.86h-64.33z"/><path class="cls-7" d="M192.987 87.74h-9.644a62.788 62.788 0 0 0-24.568 20.762c-8.26 12.196-4.344 18.242-11.664 31.64a56.725 56.725 0 0 1-18.452 19.91v2.547h64.33z"/><path class="cls-8" d="M192.987 87.74h64.33v74.86h-64.33z"/><path class="cls-9" d="M128.658 12.882H116.59a61.965 61.965 0 0 0-15.267 15.333c-8.26 12.196-4.344 18.241-11.663 31.64-6.628 12.13-16.463 19.296-25.33 24.056v3.83h64.328z"/><path class="cls-10" d="M128.658 12.882h64.33v74.86h-64.33z"/><path class="cls-4" d="M10.16 74.86h24.755v12.88H10.16zM51.952 74.86h24.754v12.88H51.952zM93.744 74.86h24.754v12.88H93.744z"/><path class="cls-2" d="M138.82 74.86h24.753v12.88H138.82zM180.61 74.86h24.754v12.88H180.61zM222.402 74.86h24.754v12.88h-24.754z"/><path class="cls-3" d="M74.49 0h24.754v12.882H74.49zM116.28 0h24.755v12.882H116.28zM158.073 0h24.754v12.882h-24.754z"/></g></g></g></svg>